{"title":"Tomorrowland.2015.720p.HD-TS.X264.AC3.HQ.Hive-CM8","uid":12154748,"size":3463834011,"categoryP":"video","categoryS":"movies","magnet":"?xt=urn:btih:4b8528492d890b3bf90a76b23288b41782a94b4a&amp;dn=Tomorrowland.2015.720p.HD-TS.X264.AC3.HQ.Hive-CM8&amp;tr=udp%3A%2F%2Ftracker.openbittorrent.com%3A80&amp;tr=udp%3A%2F%2Fopen.demonii.com%3A1337&amp;tr=udp%3A%2F%2Ftracker.coppersurfer.tk%3A6969&amp;tr=udp%3A%2F%2Fexodus.desync.com%3A6969","seeders":1,"leechers":2,"uploader":"TvTeam","files":4,"time":1437749862,"description":"------------------------------------------------------------------------\n\n &lt;a href=&quot; https://www.torrenting.com&quot; rel=&quot;nofollow&quot; target=&quot;_NEW&quot;&gt; https://www.torrenting.com&lt;/a&gt;\n\nSign up is OPEN - for time being. Come and have fun\n\n.......................................................................................................................[center][img]http://img911.imageshack.us/img911/1720/aFMpxR.jpg[/img]\n\n\n[color=blue][size=4][b]Tomorrowland.2015.720p.HD-TS.X264.AC3.HQ.Hive-CM8[/b][/size][/color]\n\nThx Hive\n\nCM8 Doing It Right The First Time\n\nSources:\nVideo: 1080p HDCAM from Incoming (big thx)\nAudio: Line from Mr.Seen-Simple\nthx guys\n\nNotes:\nnot a day 1 release,lol, but it was needed\nThe versions out so far were far from great, the last one was at least watchable-ish but half the screen was cropped, cant enjoy a movie like this.\nIncoming was so nice to get me a perfect new cam for this, full-widescreen, nothing is cropped from any side.\nno movements,no focus issues, you cant do a better cam than this.\n\nEncode:\nquality was already very very nice, some flicker here and there which i removed as needed, adjusted colours and removed some noise in the video.\nDid avi the usual size and 720p mkv for the quality hunters\nAudio is the Line from Mr.Seen-Simple which i cleaned the usual way and lipsynced it to my videos.\n\nit wont get better than this, will do me till retail\nenjoy\n\nVideo: 1280x680@bitrate 3500-8000\nAudio: Line AC3 2.0 Stereo\nSample:yes included\n\nPS:\nQuality: Video: 10, Audio: 9\n\nyou have access to 0 day HDCams? msg me\n\n &lt;a href=&quot;\nhttp://www.imdb.com/title/tt1964418/&quot; rel=&quot;nofollow&quot; target=&quot;_NEW&quot;&gt;\nhttp://www.imdb.com/title/tt1964418/&lt;/a&gt;\n\n\nGeneral\nComplete name                  : Tomorrowland.2015.720p.HD-TS.X264.AC3.HQ.Hive-CM8.mkv\nFormat                         : Matroska\nFormat version                 : Version 2\nFile size                      : 3.19 GiB\nDuration                       : 2h 1mn\nOverall bit rate mode          : Variable\nOverall bit rate               : 3 757 Kbps\nEncoded date                   : UTC 2015-06-21 16:40:09\nWriting application            : mkvmerge v5.6.0 ('Kenya Kane') built on May 27 2012 16:44:04\nWriting library                : libebml v1.2.3 + libmatroska v1.3.0\n\nVideo\nID                             : 1\nFormat                         : AVC\nFormat/Info                    : Advanced Video Codec\nFormat profile                 : &lt;a class=&quot;__cf_email__&quot; href=&quot;/cdn-cgi/l/email-protection&quot; data-cfemail=&quot;6c24050b042c205f425d&quot;&gt;[email&amp;#160;protected]&lt;/a&gt;&lt;script data-cfhash='f9e31' type=&quot;text/javascript&quot;&gt;\n/* &lt;![CDATA[ */!function(){try{var t=&quot;currentScript&quot;in document?document.currentScript:function(){for(var t=document.getElementsByTagName(&quot;script&quot;),e=t.length;e--;)if(t[e].getAttribute(&quot;data-cfhash&quot;))return t[e]}();if(t&amp;&amp;t.previousSibling){var e,r,n,i,c=t.previousSibling,a=c.getAttribute(&quot;data-cfemail&quot;);if(a){for(e=&quot;&quot;,r=parseInt(a.substr(0,2),16),n=2;a.length-n;n+=2)i=parseInt(a.substr(n,2),16)^r,e+=String.fromCharCode(i);e=document.createTextNode(e),c.parentNode.replaceChild(e,c)}t.parentNode.removeChild(t);}}catch(u){}}()/* ]]&gt; */&lt;/script&gt;\nFormat settings, CABAC         : Yes\nFormat settings, ReFrames      : 4 frames\nFormat settings, GOP           : M=4, N=33\nMuxing mode                    : Header stripping\nCodec ID                       : V_MPEG4/ISO/AVC\nDuration                       : 2h 1mn\nBit rate mode                  : Variable\nBit rate                       : 3 426 Kbps\nMaximum bit rate               : 8 000 Kbps\nWidth                          : 1 280 pixels\nHeight                         : 680 pixels\nDisplay aspect ratio           : 1.882\nFrame rate                     : 29.970 fps\nStandard                       : NTSC\nColor space                    : YUV\nChroma subsampling             : 4:2:0\nBit depth                      : 8 bits\nScan type                      : Progressive\nBits/(Pixel*Frame)             : 0.131\nStream size                    : 2.91 GiB (91%)\nLanguage                       : English\nDefault                        : Yes\nForced                         : No\nColor primaries                : BT.709-5, BT.1361, IEC 61966-2-4, SMPTE RP177\nTransfer characteristics       : BT.709-5, BT.1361\nMatrix coefficients            : BT.709-5, BT.1361, IEC 61966-2-4 709, SMPTE RP177\n\nAudio\nID                             : 2\nFormat                         : AC-3\nFormat/Info                    : Audio Coding 3\nMode extension                 : CM (complete main)\nFormat settings, Endianness    : Big\nMuxing mode                    : Header stripping\nCodec ID                       : A_AC3\nDuration                       : 2h 1mn\nBit rate mode                  : Constant\nBit rate                       : 256 Kbps\nChannel(s)                     : 2 channels\nChannel positions              : Front: L R\nSampling rate                  : 48.0 KHz\nBit depth                      : 16 bits\nCompression mode               : Lossy\nDelay relative to video        : 69ms\nStream size                    : 222 MiB (7%)\nLanguage                       : English\nDefault                        : Yes\nForced                         : No\n\n\n\n\nScreens \n\n[img]http://img912.imageshack.us/img912/1228/CENm8V.png[/img]\n[img]http://img537.imageshack.us/img537/2338/sIHjYx.png[/img]\n[img]http://img661.imageshack.us/img661/7996/I2L0JQ.png[/img]\n[img]http://img661.imageshack.us/img661/4954/ZiIP1P.png[/img]\n[img]http://img908.imageshack.us/img908/844/21i2Ag.png[/img]\n[img]http://img538.imageshack.us/img538/301/J2KRyY.png[/img]\n[img]http://img908.imageshack.us/img908/7785/KfOqvv.png[/img]\n\n\n\nPlot\n\nBound by a shared destiny, a teen bursting with scientific curiosity and a former boy-genius inventor \nembark on a mission to unearth the secrets of a place somewhere in time and space that exists in their collective memory.\n\nCast\n\nGeorge Clooney \t... \tFrank Walker\nHugh Laurie \t... \tNix\nBritt Robertson ... \tCasey Newton\nRaffey Cassidy \t... \tAthena\nTim McGraw \t... \tEddie Newton \n\n\n\n\nGreetz\n\nSugarB,iNCOMiNG,jiinx,SiMPLE,CherryBomb\nViSiON,YanKeeS,COPYxRIGHT,THC,\nLKRG,Kingstoner,ACAB,SiMPLE,TiTAN\nUnevano,BigVik,Rapeseed,SAFC,goldadvance,KaN1vE,Pinnz,Wayne,HiGH\nSeeN,jtr,Limey,ICONiK,TED,rkofan\nMr Hive\n\nLOOKING FOR ANYTHING YOU WANT TO LOOK AND SOUND BETTER\n\n\nCOME FIND US WE DONT BITE \n&lt;a class=&quot;__cf_email__&quot; href=&quot;/cdn-cgi/l/email-protection&quot; data-cfemail=&quot;692a245129011c1a010408000547040c&quot;&gt;[email&amp;#160;protected]&lt;/a&gt;&lt;script data-cfhash='f9e31' type=&quot;text/javascript&quot;&gt;\n/* &lt;![CDATA[ */!function(){try{var t=&quot;currentScript&quot;in document?document.currentScript:function(){for(var t=document.getElementsByTagName(&quot;script&quot;),e=t.length;e--;)if(t[e].getAttribute(&quot;data-cfhash&quot;))return t[e]}();if(t&amp;&amp;t.previousSibling){var e,r,n,i,c=t.previousSibling,a=c.getAttribute(&quot;data-cfemail&quot;);if(a){for(e=&quot;&quot;,r=parseInt(a.substr(0,2),16),n=2;a.length-n;n+=2)i=parseInt(a.substr(n,2),16)^r,e+=String.fromCharCode(i);e=document.createTextNode(e),c.parentNode.replaceChild(e,c)}t.parentNode.removeChild(t);}}catch(u){}}()/* ]]&gt; */&lt;/script&gt;[/center]","torrent":{"xt":"urn:btih:4b8528492d890b3bf90a76b23288b41782a94b4a","amp;dn":"Tomorrowland.2015.720p.HD-TS.X264.AC3.HQ.Hive-CM8","amp;tr":["udp%3A%2F%2Ftracker.openbittorrent.com%3A80","udp%3A%2F%2Fopen.demonii.com%3A1337","udp%3A%2F%2Ftracker.coppersurfer.tk%3A6969","udp%3A%2F%2Fexodus.desync.com%3A6969"],"infoHash":"4b8528492d890b3bf90a76b23288b41782a94b4a","infoHashBuffer":{"type":"Buffer","data":[75,133,40,73,45,137,11,59,249,10,118,178,50,136,180,23,130,169,75,74]},"announce":[],"urlList":[]}}